<svg width="17" height="27" viewBox="0 0 17 27" fill="none" xmlns="http://www.w3.org/2000/svg">
<path fill-rule="evenodd" clip-rule="evenodd" d="M13.7035 13.0341H3.65722C3.27659 13.0341 2.91154 13.2137 2.6424 13.5333C2.37325 13.853 2.22204 14.2866 2.22204 14.7386V23.2614C2.22204 23.7134 2.37325 24.147 2.6424 24.4667C2.91154 24.7863 3.27659 24.9659 3.65722 24.9659H13.7035C14.0841 24.9659 14.4491 24.7863 14.7183 24.4667C14.9874 24.147 15.1386 23.7134 15.1386 23.2614V14.7386C15.1386 14.2866 14.9874 13.853 14.7183 13.5333C14.4491 13.2137 14.0841 13.0341 13.7035 13.0341ZM3.65722 11.3295C2.89595 11.3295 2.16587 11.6887 1.62757 12.328C1.08928 12.9674 0.786865 13.8345 0.786865 14.7386V23.2614C0.786865 24.1655 1.08928 25.0326 1.62757 25.672C2.16587 26.3113 2.89595 26.6705 3.65722 26.6705H13.7035C14.4647 26.6705 15.1948 26.3113 15.7331 25.672C16.2714 25.0326 16.5738 24.1655 16.5738 23.2614V14.7386C16.5738 13.8345 16.2714 12.9674 15.7331 12.328C15.1948 11.6887 14.4647 11.3295 13.7035 11.3295H3.65722ZM3.65722 6.21591C3.65722 4.63365 4.18644 3.1162 5.12846 1.99737C6.07048 0.878549 7.34813 0.25 8.68034 0.25C10.0126 0.25 11.2902 0.878549 12.2322 1.99737C13.1742 3.1162 13.7035 4.63365 13.7035 6.21591V11.3295H12.2683V6.21591C12.2683 5.08573 11.8903 4.00183 11.2174 3.20267C10.5445 2.40351 9.63192 1.95455 8.68034 1.95455C7.72876 1.95455 6.81615 2.40351 6.14328 3.20267C5.47041 4.00183 5.0924 5.08573 5.0924 6.21591V11.3295H3.65722V6.21591Z" fill="#07029C"/>
</svg>
