<svg width="25" height="20" viewBox="0 0 25 20" fill="none" xmlns="http://www.w3.org/2000/svg">
<path fill-rule="evenodd" clip-rule="evenodd" d="M16.4107 13.3059C16.5542 13.1939 16.7246 13.1051 16.9122 13.0444C17.0998 12.9838 17.3009 12.9526 17.504 12.9526C17.7071 12.9526 17.9082 12.9838 18.0958 13.0444C18.2834 13.1051 18.4538 13.1939 18.5973 13.3059L24.5469 17.9431C24.8368 18.1689 24.9998 18.4753 24.9999 18.7948C25.0001 19.1143 24.8374 19.4208 24.5476 19.6468C24.2579 19.8728 23.8648 19.9998 23.4548 20C23.0449 20.0001 22.6517 19.8733 22.3617 19.6474L16.4122 15.0102C16.2685 14.8983 16.1545 14.7655 16.0768 14.6193C15.999 14.4731 15.959 14.3163 15.959 14.1581C15.959 13.9998 15.999 13.843 16.0768 13.6968C16.1545 13.5506 16.267 13.4178 16.4107 13.3059Z" fill="#07029C"/>
<path fill-rule="evenodd" clip-rule="evenodd" d="M10.3188 15.1826C11.435 15.1826 12.5402 15.0113 13.5714 14.6783C14.6026 14.3454 15.5396 13.8575 16.3288 13.2423C17.118 12.6272 17.7441 11.8969 18.1712 11.0931C18.5983 10.2894 18.8182 9.42799 18.8182 8.55804C18.8182 7.68809 18.5983 6.82665 18.1712 6.02292C17.7441 5.2192 17.118 4.48891 16.3288 3.87376C15.5396 3.25861 14.6026 2.77065 13.5714 2.43774C12.5402 2.10482 11.435 1.93347 10.3188 1.93347C8.06468 1.93347 5.90284 2.63141 4.3089 3.87376C2.71497 5.11611 1.81951 6.80109 1.81951 8.55804C1.81951 10.315 2.71497 12 4.3089 13.2423C5.90284 14.4847 8.06468 15.1826 10.3188 15.1826ZM20.3635 8.55804C20.3635 10.6344 19.3052 12.6258 17.4215 14.094C15.5378 15.5622 12.9829 16.3871 10.3188 16.3871C7.65483 16.3871 5.09993 15.5622 3.21619 14.094C1.33245 12.6258 0.27417 10.6344 0.27417 8.55804C0.27417 6.48165 1.33245 4.4903 3.21619 3.02207C5.09993 1.55385 7.65483 0.729004 10.3188 0.729004C12.9829 0.729004 15.5378 1.55385 17.4215 3.02207C19.3052 4.4903 20.3635 6.48165 20.3635 8.55804Z" fill="#07029C"/>
</svg>
